<?xml version="1.0" encoding="UTF-8" standalone="no"?>
<svg width="400px" height="400px" viewBox="0 0 400 400" version="1.1" xmlns="http://www.w3.org/2000/svg" xmlns:xlink="http://www.w3.org/1999/xlink">
    <!-- Generator: Sketch 46.2 (44496) - http://www.bohemiancoding.com/sketch -->
    <title>Group</title>
    <desc>Created with Sketch.</desc>
    <defs>
        <circle id="path-1" cx="200.25" cy="200.5" r="200"></circle>
    </defs>
    <g id="Page-1" stroke="none" stroke-width="1" fill="none" fill-rule="evenodd">
        <g id="Artboard-Copy-5">
            <g id="Group" transform="translate(-1.000000, 0.000000)">
                <g id="Oval-Copy">
                    <use fill="#FFFFFF" fill-rule="evenodd" xlink:href="#path-1"></use>
                    <circle stroke="#4ECEDF" stroke-width="1" cx="200.25" cy="200.5" r="200.5"></circle>
                </g>
                <path d="M139.272325,209.875 C139.272325,227.3125 142.647325,240.8125 165.147325,240.8125 C178.366075,240.8125 193.553575,233.78125 197.491075,231.25 C200.584825,229.28125 201.428575,227.59375 199.459825,224.21875 L195.241075,217.1875 C193.834825,214.9375 192.709825,213.25 188.491075,215.5 C184.834825,217.46875 174.991075,221.6875 167.959825,221.6875 C161.491075,221.6875 158.678575,219.4375 158.678575,208.1875 L158.678575,142.375 L191.303575,142.375 C194.397325,142.375 196.647325,139.84375 196.647325,137.03125 L196.647325,130.84375 C196.647325,127.75 194.397325,125.5 191.303575,125.5 L158.678575,125.5 L158.678575,93.71875 C158.678575,90.90625 156.428575,88.375 153.616075,88.375 L144.616075,88.9375 C141.803575,88.9375 139.272325,91.46875 139.272325,94.28125 L139.272325,125.5 L124.928575,125.5 C121.834825,125.5 119.584825,127.75 119.584825,130.84375 L119.584825,137.03125 C119.584825,139.84375 121.834825,142.375 124.928575,142.375 L139.272325,142.375 L139.272325,209.875 Z" id="t" fill="#4ECEDF"></path>
                <path d="M176.928575,250.78125 C176.928575,284.53125 203.366075,309.5625 234.584825,309.5625 C253.709825,309.5625 269.178575,299.4375 277.616075,285.9375 C279.303575,283.125 278.459825,280.03125 275.647325,278.0625 L272.553575,275.8125 C269.459825,273.5625 267.491075,273 264.116075,276.375 C257.647325,282.5625 251.178575,291 234.303575,291 C213.209825,291 197.178575,273 197.178575,250.5 C197.178575,228 213.491075,210.5625 234.584825,210.5625 C245.553575,210.5625 254.834825,215.90625 260.459825,222.375 C262.991075,224.625 264.397325,227.4375 268.616075,223.5 L273.959825,219 C276.491075,217.03125 277.053575,213.65625 275.084825,211.125 C264.959825,198.1875 251.741075,191.4375 234.866075,191.4375 C204.209825,191.4375 176.928575,217.59375 176.928575,250.78125 Z" id="c" fill="#4ECEDF"></path>
            </g>
        </g>
    </g>
</svg>