<?xml version="1.0" encoding="UTF-8"?>
<svg width="83px" height="90px" viewBox="0 0 83 90" version="1.1" xmlns="http://www.w3.org/2000/svg" xmlns:xlink="http://www.w3.org/1999/xlink">
    <!-- Generator: Sketch 61.2 (89653) - https://sketch.com -->
    <title>noun_Upload_385700</title>
    <desc>Created with Sketch.</desc>
    <g id="Page-1" stroke="none" stroke-width="1" fill="none" fill-rule="evenodd">
        <g id="noun_Upload_385700" transform="translate(0.000000, -1.000000)" fill="#888888" fill-rule="nonzero">
            <g id="Group" transform="translate(0.000000, 0.637820)">
                <path d="M3.6875,0.36218 C2.61556941,0.417823016 1.65477296,1.04117153 1.16710666,1.99736864 C0.679440356,2.95356574 0.739010226,4.09730725 1.32337233,4.99766954 C1.90773443,5.89803183 2.92808881,6.41819541 4,6.36218 L80,6.36218 C81.0819077,6.37748087 82.0882441,5.80905411 82.6336632,4.87456145 C83.1790822,3.94006879 83.1790822,2.78429121 82.6336632,1.84979855 C82.0882441,0.915305889 81.0819077,0.346879131 80,0.36218 L4,0.36218 C3.89590406,0.356751512 3.79159594,0.356751512 3.6875,0.36218 Z M41.875,16.36218 C41.1523495,16.3906481 40.4643005,16.6791848 39.9375,17.17468 L17.9375,38.17468 C17.0862768,38.8931061 16.7031206,40.0239787 16.9423395,41.1118626 C17.1815584,42.1997464 18.0037748,43.0655651 19.077858,43.3606282 C20.1519412,43.6556913 21.3010866,43.3314286 22.0625,42.51843 L39,26.36218 L39,87.36218 C38.9846991,88.4440877 39.5531259,89.4504241 40.4876185,89.9958432 C41.4221112,90.5412622 42.5778888,90.5412622 43.5123815,89.9958432 C44.4468741,89.4504241 45.0153009,88.4440877 45,87.36218 L45,26.36218 L61.9375,42.51843 C62.6989134,43.3314286 63.8480588,43.6556913 64.922142,43.3606282 C65.9962252,43.0655651 66.8184416,42.1997464 67.0576605,41.1118626 C67.2968794,40.0239787 66.9137232,38.8931061 66.0625,38.17468 L44.0625,17.17468 C43.4728429,16.6197663 42.6839307,16.3267417 41.875,16.36218 Z" id="Shape"></path>
            </g>
        </g>
    </g>
</svg>