<svg xmlns="http://www.w3.org/2000/svg" xmlns:xlink="http://www.w3.org/1999/xlink" width="54" height="54" viewBox="0 0 54 54">
  <defs>
    <clipPath id="clip-path">
      <path id="Path_12" data-name="Path 12" d="M27,10A27,27,0,0,0,54-17,27,27,0,0,0,27-44,27,27,0,0,0,0-17,27,27,0,0,0,27,10Z" transform="translate(0 44)" fill="none" clip-rule="evenodd"/>
    </clipPath>
    <clipPath id="clip-path-2">
      <path id="Path_11" data-name="Path 11" d="M-240,285.455H476.727V-284H-240Z" transform="translate(240 284)" fill="none"/>
    </clipPath>
    <clipPath id="clip-path-3">
      <path id="Path_15" data-name="Path 15" d="M32.776-24.214a10.911,10.911,0,0,0-.642-2.068A10.869,10.869,0,0,0,31.12-28.15a11.075,11.075,0,0,0-1.341-1.627,11.014,11.014,0,0,0-1.629-1.343,10.966,10.966,0,0,0-1.868-1.015,10.926,10.926,0,0,0-2.067-.64A11.034,11.034,0,0,0,22-33a11.037,11.037,0,0,0-2.216.225,10.926,10.926,0,0,0-2.067.64,11.027,11.027,0,0,0-1.869,1.015,11.07,11.07,0,0,0-1.627,1.343A10.994,10.994,0,0,0,12.88-28.15a10.876,10.876,0,0,0-1.015,1.868,11.005,11.005,0,0,0-.642,2.068A11.091,11.091,0,0,0,11-22a11.139,11.139,0,0,0,.222,2.217,11.01,11.01,0,0,0,.642,2.066,10.947,10.947,0,0,0,1.015,1.87,11.05,11.05,0,0,0,1.341,1.626,11.061,11.061,0,0,0,1.627,1.341,10.937,10.937,0,0,0,1.869,1.015,11.021,11.021,0,0,0,2.067.64A10.944,10.944,0,0,0,22-11a10.941,10.941,0,0,0,2.215-.225,11.021,11.021,0,0,0,2.067-.64,10.877,10.877,0,0,0,1.868-1.015,11.005,11.005,0,0,0,1.629-1.341,11.132,11.132,0,0,0,1.341-1.626,10.941,10.941,0,0,0,1.014-1.87,10.915,10.915,0,0,0,.642-2.066A11.046,11.046,0,0,0,33-22a11,11,0,0,0-.224-2.213Zm-1.384,2.12a21.729,21.729,0,0,0-6.543-.308c-.067-.16-.135-.322-.2-.484-.2-.46-.406-.916-.625-1.363a12.081,12.081,0,0,0,5.234-3.719,9.363,9.363,0,0,1,2.137,5.873ZM28.2-29.05a10.225,10.225,0,0,1-4.908,3.4,47.73,47.73,0,0,0-3.511-5.48A9.4,9.4,0,0,1,22-31.394a9.364,9.364,0,0,1,6.2,2.344ZM19.75-31.121a0,0,0,0,1,0,0l-.028.006c.009,0,.019,0,.03-.008Zm-1.758.625a56.582,56.582,0,0,1,3.489,5.413,34.751,34.751,0,0,1-8.675,1.147,9.407,9.407,0,0,1,5.186-6.56ZM12.605-22c0-.1.005-.2.008-.3a34.447,34.447,0,0,0,9.645-1.339c.269.526.526,1.062.762,1.6-.124.035-.247.072-.37.113a14.865,14.865,0,0,0-7.641,6.2s0,0,0,.005A9.358,9.358,0,0,1,12.605-22ZM22-12.606a9.363,9.363,0,0,1-5.985-2.152c.124.1.211.164.211.164s1.8-3.927,7.372-5.868c.021-.008.041-.014.063-.021a39.116,39.116,0,0,1,2.006,7.133A9.363,9.363,0,0,1,22-12.606Zm5.249-1.6a40.6,40.6,0,0,0-1.829-6.709,13.62,13.62,0,0,1,5.855.41,9.4,9.4,0,0,1-4.026,6.3Z" transform="translate(-11 33)" fill="none" clip-rule="evenodd"/>
    </clipPath>
    <clipPath id="clip-path-4">
      <path id="Path_14" data-name="Path 14" d="M-240,180H344V-284H-240Z" transform="translate(240 284)" fill="none"/>
    </clipPath>
  </defs>
  <g id="Group_24" data-name="Group 24" transform="translate(0 44)">
    <g id="Group_21" data-name="Group 21" transform="translate(0 -44)" clip-path="url(#clip-path)">
      <g id="Group_20" data-name="Group 20" transform="translate(-294.545 -294.545)" clip-path="url(#clip-path-2)">
        <g id="Group_19" data-name="Group 19" transform="translate(294.545 294.545)">
          <path id="Path_10" data-name="Path 10" d="M27,54A27,27,0,1,0,0,27,27,27,0,0,0,27,54Z" fill="none" stroke="#878787" stroke-width="4"/>
        </g>
      </g>
    </g>
    <g id="Group_23" data-name="Group 23" transform="translate(16 -28)" clip-path="url(#clip-path-3)">
      <g id="Group_22" data-name="Group 22" transform="translate(-251 -251)" clip-path="url(#clip-path-4)">
        <path id="Path_13" data-name="Path 13" d="M6-6H38V-38H6Z" transform="translate(240 284)" fill="#878787"/>
      </g>
    </g>
  </g>
</svg>
