<svg xmlns="http://www.w3.org/2000/svg" xmlns:xlink="http://www.w3.org/1999/xlink" width="54" height="54" viewBox="0 0 54 54">
  <defs>
    <clipPath id="clip-path">
      <path id="Path_24" data-name="Path 24" d="M27,10A27,27,0,0,0,54-17,27,27,0,0,0,27-44,27,27,0,0,0,0-17,27,27,0,0,0,27,10Z" transform="translate(0 44)" fill="none" clip-rule="evenodd"/>
    </clipPath>
    <clipPath id="clip-path-2">
      <path id="Path_23" data-name="Path 23" d="M-180,345.455H536.727V-224H-180Z" transform="translate(180 224)" fill="none"/>
    </clipPath>
    <clipPath id="clip-path-3">
      <path id="Path_27" data-name="Path 27" d="M13.112-25.068a5.9,5.9,0,0,1-1.436-1.312A2.546,2.546,0,0,1,11-27.932a2.183,2.183,0,0,1,.509-1.477A1.816,1.816,0,0,1,12.964-30H31.036a1.977,1.977,0,0,1,1.381.534A1.681,1.681,0,0,1,33-28.182a2.852,2.852,0,0,1-.6,1.716,5.633,5.633,0,0,1-1.5,1.4l-5.745,3.693q-.123.08-.522.347t-.663.432q-.264.165-.638.369a3.86,3.86,0,0,1-.706.307,2.088,2.088,0,0,1-.614.1h-.025a2.088,2.088,0,0,1-.614-.1,3.854,3.854,0,0,1-.706-.307q-.375-.2-.638-.369t-.663-.432q-.4-.267-.522-.347-1.117-.727-3.217-2.074T13.112-25.068Zm18.661,1.216A6.65,6.65,0,0,0,33-24.841v9.023a1.688,1.688,0,0,1-.577,1.284A1.97,1.97,0,0,1,31.036-14H12.964a1.97,1.97,0,0,1-1.387-.534A1.688,1.688,0,0,1,11-15.818v-9.023a6.4,6.4,0,0,0,1.24.989q4.444,2.8,6.1,3.92.7.477,1.136.744a7.241,7.241,0,0,0,1.16.545,3.779,3.779,0,0,0,1.35.278h.025a3.778,3.778,0,0,0,1.35-.278,7.234,7.234,0,0,0,1.16-.545q.436-.267,1.136-.744Q27.745-21.33,31.772-23.852Z" transform="translate(-11 30)" fill="none" clip-rule="evenodd"/>
    </clipPath>
    <clipPath id="clip-path-4">
      <path id="Path_26" data-name="Path 26" d="M-180,240H404V-224H-180Z" transform="translate(180 224)" fill="none"/>
    </clipPath>
  </defs>
  <g id="Group_36" data-name="Group 36" transform="translate(0 44)">
    <g id="Group_33" data-name="Group 33" transform="translate(0 -44)" clip-path="url(#clip-path)">
      <g id="Group_32" data-name="Group 32" transform="translate(-220.909 -220.909)" clip-path="url(#clip-path-2)">
        <g id="Group_31" data-name="Group 31" transform="translate(220.909 220.909)">
          <path id="Path_22" data-name="Path 22" d="M27,54A27,27,0,1,0,0,27,27,27,0,0,0,27,54Z" fill="none" stroke="#878787" stroke-width="4"/>
        </g>
      </g>
    </g>
    <g id="Group_35" data-name="Group 35" transform="translate(16 -25)" clip-path="url(#clip-path-3)">
      <g id="Group_34" data-name="Group 34" transform="translate(-191 -194)" clip-path="url(#clip-path-4)">
        <path id="Path_25" data-name="Path 25" d="M6-9H38V-35H6Z" transform="translate(180 224)" fill="#878787"/>
      </g>
    </g>
  </g>
</svg>
