<?xml version="1.0" encoding="UTF-8"?>
<svg width="300px" height="300px" viewBox="0 0 300 300" version="1.1" xmlns="http://www.w3.org/2000/svg" xmlns:xlink="http://www.w3.org/1999/xlink">
    <!-- Generator: Sketch 61.2 (89653) - https://sketch.com -->
    <title>Tile Size Copy</title>
    <desc>Created with Sketch.</desc>
    <g id="Tile-Size-Copy" stroke="none" stroke-width="1" fill="none" fill-rule="evenodd">
        <g id="exit" transform="translate(31.000000, 30.000000)" fill="#888888" fill-rule="nonzero" stroke="#888888" stroke-width="2">
            <path d="M7.39107904,0.0623662469 C4.33573766,0.390270338 1.74336156,2.45280755 0.734553523,5.35840779 C-0.274254522,8.26400803 0.481472679,11.491444 2.67505801,13.6455965 L108.247739,119.412579 L2.67505801,225.096737 C0.460442177,227.061578 -0.479551955,230.09587 0.235893442,232.970334 C0.951338836,235.844799 3.20360699,238.082867 6.08024132,238.777835 C8.95687565,239.472803 11.9809466,238.509449 13.9273187,236.278054 L119.5,130.593896 L225.072681,236.278054 C227.019053,238.509449 230.043124,239.472803 232.919759,238.777835 C235.796393,238.082867 238.048661,235.844799 238.764107,232.970334 C239.479552,230.09587 238.539558,227.061578 236.324942,225.096737 L130.752261,119.412579 L236.324942,13.6455965 C238.76849,11.260403 239.416957,7.57928423 237.935812,4.50125467 C236.454667,1.42322512 233.174991,-0.36368047 229.788702,0.0623662469 C227.988686,0.299956566 226.324291,1.14764805 225.072681,2.46427892 L119.5,108.148437 L13.9273187,2.46427892 C12.2338258,0.699503158 9.82295353,-0.186435058 7.39107904,0.0623662469 Z" id="Path"></path>
        </g>
    </g>
</svg>