<?xml version="1.0" encoding="UTF-8"?>
<svg width="92px" height="92px" viewBox="0 0 92 92" version="1.1" xmlns="http://www.w3.org/2000/svg" xmlns:xlink="http://www.w3.org/1999/xlink">
    <!-- Generator: Sketch 61.2 (89653) - https://sketch.com -->
    <title>noun_cancel_385690</title>
    <desc>Created with Sketch.</desc>
    <g id="Page-1" stroke="none" stroke-width="1" fill="none" fill-rule="evenodd">
        <g id="noun_cancel_385690" fill="#888888" fill-rule="nonzero">
            <g id="Group" transform="translate(0.000000, 0.637820)">
                <path d="M3.65625,0.33093 C2.50224182,0.454649353 1.5230965,1.23285181 1.14206781,2.32914488 C0.761039117,3.42543795 1.0464787,4.64316077 1.875,5.45593 L41.75,45.36218 L1.875,85.23718 C1.03853544,85.9785217 0.683497891,87.1233703 0.953722961,88.2079158 C1.22394803,89.2924612 2.07463394,90.1368921 3.16114413,90.3991059 C4.24765432,90.6613197 5.38985159,90.2978429 6.125,89.45593 L46,49.58093 L85.875,89.45593 C86.6101484,90.2978429 87.7523457,90.6613197 88.8388559,90.3991059 C89.9253661,90.1368921 90.776052,89.2924612 91.046277,88.2079158 C91.3165021,87.1233703 90.9614646,85.9785217 90.125,85.23718 L50.25,45.36218 L90.125,5.45593 C91.0479328,4.55598819 91.29286,3.16708928 90.7334286,2.00573803 C90.1739972,0.844386782 88.9352574,0.170181093 87.65625,0.33093 C86.9763804,0.420573653 86.3477354,0.740410596 85.875,1.23718 L46,41.11218 L6.125,1.23718 C5.48536453,0.571323971 4.57477356,0.237056403 3.65625,0.33093 Z" id="Path"></path>
            </g>
        </g>
    </g>
</svg>