<svg xmlns="http://www.w3.org/2000/svg" xmlns:xlink="http://www.w3.org/1999/xlink" width="54" height="54" viewBox="0 0 54 54">
  <defs>
    <clipPath id="clip-path">
      <path id="Path_6" data-name="Path 6" d="M27,10A27,27,0,0,0,54-17,27,27,0,0,0,27-44,27,27,0,0,0,0-17,27,27,0,0,0,27,10Z" transform="translate(0 44)" fill="none" clip-rule="evenodd"/>
    </clipPath>
    <clipPath id="clip-path-2">
      <path id="Path_5" data-name="Path 5" d="M-60,225.455H656.727V-344H-60Z" transform="translate(60 344)" fill="none"/>
    </clipPath>
    <clipPath id="clip-path-3">
      <path id="Path_9" data-name="Path 9" d="M10-21.7a12.283,12.283,0,0,0,8.207,11.674c.6.113.819-.267.819-.593,0-.292-.01-1.066-.016-2.092-3.338.743-4.042-1.65-4.042-1.65a3.238,3.238,0,0,0-1.333-1.8c-1.09-.764.083-.748.083-.748a2.527,2.527,0,0,1,1.838,1.268,2.52,2.52,0,0,0,3.493,1.022,2.658,2.658,0,0,1,.762-1.645c-2.665-.31-5.466-1.366-5.466-6.08a4.825,4.825,0,0,1,1.235-3.3A4.531,4.531,0,0,1,15.7-28.9s1.008-.332,3.3,1.261a11.231,11.231,0,0,1,3-.414,11.249,11.249,0,0,1,3,.414c2.29-1.592,3.3-1.261,3.3-1.261a4.526,4.526,0,0,1,.119,3.256,4.816,4.816,0,0,1,1.233,3.3c0,4.726-2.805,5.766-5.479,6.071a2.976,2.976,0,0,1,.814,2.278c0,1.645-.014,2.972-.014,3.376,0,.329.216.712.825.591A12.284,12.284,0,0,0,34-21.7,12.156,12.156,0,0,0,22-34,12.155,12.155,0,0,0,10-21.7Z" transform="translate(-10 34)" fill="none" clip-rule="evenodd"/>
    </clipPath>
    <clipPath id="clip-path-4">
      <path id="Path_8" data-name="Path 8" d="M-60,120H524V-344H-60Z" transform="translate(60 344)" fill="none"/>
    </clipPath>
  </defs>
  <g id="Group_18" data-name="Group 18" transform="translate(0 44)">
    <g id="Group_15" data-name="Group 15" transform="translate(0 -44)" clip-path="url(#clip-path)">
      <g id="Group_14" data-name="Group 14" transform="translate(-73.636 -368.182)" clip-path="url(#clip-path-2)">
        <g id="Group_13" data-name="Group 13" transform="translate(73.636 368.182)">
          <path id="Path_4" data-name="Path 4" d="M27,54A27,27,0,1,0,0,27,27,27,0,0,0,27,54Z" fill="none" stroke="#878787" stroke-width="4"/>
        </g>
      </g>
    </g>
    <g id="Group_17" data-name="Group 17" transform="translate(15 -29)" clip-path="url(#clip-path-3)">
      <g id="Group_16" data-name="Group 16" transform="translate(-70 -310)" clip-path="url(#clip-path-4)">
        <path id="Path_7" data-name="Path 7" d="M5-5H39V-39H5Z" transform="translate(60 344)" fill="#878787"/>
      </g>
    </g>
  </g>
</svg>
