<?xml version="1.0" encoding="UTF-8"?>
<svg width="300px" height="300px" viewBox="0 0 300 300" version="1.1" xmlns="http://www.w3.org/2000/svg" xmlns:xlink="http://www.w3.org/1999/xlink">
    <!-- Generator: Sketch 61.2 (89653) - https://sketch.com -->
    <title>Tile Size</title>
    <desc>Created with Sketch.</desc>
    <g id="Tile-Size" stroke="none" stroke-width="1" fill="none" fill-rule="evenodd" transform="translate(0.000000, 0.000000)">
        <g id="menu" fill="#888888" fill-rule="nonzero">
            <path d="M150,0 C67.2757333,0 0,67.2756667 0,150 C0,232.724333 67.2757333,300 150,300 C232.724267,300 300,232.724333 300,150 C300,67.2756667 232.724267,0 150,0 Z M150,20 C221.915463,20 280,78.0844667 280,150 C280,221.915333 221.915463,280 150,280 C78.0845367,280 20,221.915333 20,150 C20,78.0844667 78.0845367,20 150,20 Z M68.9583333,93.3333333 C65.3852313,93.51881 62.1825767,95.5966383 60.5570223,98.783962 C58.931468,101.971286 59.130034,105.783757 61.0779077,108.784965 C63.0257813,111.786173 66.4269627,113.520051 70,113.333333 L230,113.333333 C233.606359,113.384336 236.960814,111.48958 238.778877,108.374605 C240.596941,105.259629 240.596941,101.407037 238.778877,98.2920617 C236.960814,95.1770863 233.606359,93.2823303 230,93.3333333 L70,93.3333333 C69.6530137,93.3152383 69.3053197,93.3152383 68.9583333,93.3333333 L68.9583333,93.3333333 Z M68.9583333,140 C65.3852313,140.185477 62.1825767,142.263305 60.5570223,145.450629 C58.931468,148.637952 59.130034,152.450424 61.0779077,155.451632 C63.0257813,158.452839 66.4269627,160.186718 70,160 L230,160 C233.606359,160.051003 236.960814,158.156247 238.778877,155.041272 C240.596941,151.926296 240.596941,148.073704 238.778877,144.958728 C236.960814,141.843753 233.606359,139.948997 230,140 L70,140 C69.6530137,139.981905 69.3053197,139.981905 68.9583333,140 L68.9583333,140 Z M68.9583333,186.666667 C65.3852313,186.852143 62.1825767,188.929972 60.5570223,192.117295 C58.931468,195.304619 59.130034,199.117091 61.0779077,202.118298 C63.0257813,205.119506 66.4269627,206.853385 70,206.666667 L230,206.666667 C233.606359,206.71767 236.960814,204.822914 238.778877,201.707938 C240.596941,198.592963 240.596941,194.740371 238.778877,191.625395 C236.960814,188.51042 233.606359,186.615664 230,186.666667 L70,186.666667 C69.6530137,186.648572 69.3053197,186.648572 68.9583333,186.666667 L68.9583333,186.666667 Z" id="Shape"></path>
        </g>
    </g>
</svg>