<?xml version="1.0" encoding="UTF-8"?>
<svg width="90px" height="90px" viewBox="0 0 90 90" version="1.1" xmlns="http://www.w3.org/2000/svg" xmlns:xlink="http://www.w3.org/1999/xlink">
    <!-- Generator: Sketch 61.2 (89653) - https://sketch.com -->
    <title>noun_menu_385696</title>
    <desc>Created with Sketch.</desc>
    <g id="Page-1" stroke="none" stroke-width="1" fill="none" fill-rule="evenodd">
        <g id="noun_menu_385696" transform="translate(0.000000, -1.000000)" fill="#888888" fill-rule="nonzero">
            <g id="Group" transform="translate(0.000000, 0.637820)">
                <path d="M45,0.36218 C20.18272,0.36218 0,20.54488 0,45.36218 C0,70.17948 20.18272,90.36218 45,90.36218 C69.81728,90.36218 90,70.17948 90,45.36218 C90,20.54488 69.81728,0.36218 45,0.36218 Z M45,6.36218 C66.574639,6.36218 84,23.78752 84,45.36218 C84,66.93678 66.574639,84.36218 45,84.36218 C23.425361,84.36218 6,66.93678 6,45.36218 C6,23.78752 23.425361,6.36218 45,6.36218 Z M20.6875,28.36218 C19.6155694,28.417823 18.654773,29.0411715 18.1671067,29.9973686 C17.6794404,30.9535657 17.7390102,32.0973072 18.3233723,32.9976695 C18.9077344,33.8980318 19.9280888,34.4181954 21,34.36218 L69,34.36218 C70.0819077,34.3774809 71.0882441,33.8090541 71.6336632,32.8745615 C72.1790822,31.9400688 72.1790822,30.7842912 71.6336632,29.8497985 C71.0882441,28.9153059 70.0819077,28.3468791 69,28.36218 L21,28.36218 C20.8959041,28.3567515 20.7915959,28.3567515 20.6875,28.36218 L20.6875,28.36218 Z M20.6875,42.36218 C19.6155694,42.417823 18.654773,43.0411715 18.1671067,43.9973686 C17.6794404,44.9535657 17.7390102,46.0973072 18.3233723,46.9976695 C18.9077344,47.8980318 19.9280888,48.4181954 21,48.36218 L69,48.36218 C70.0819077,48.3774809 71.0882441,47.8090541 71.6336632,46.8745615 C72.1790822,45.9400688 72.1790822,44.7842912 71.6336632,43.8497985 C71.0882441,42.9153059 70.0819077,42.3468791 69,42.36218 L21,42.36218 C20.8959041,42.3567515 20.7915959,42.3567515 20.6875,42.36218 L20.6875,42.36218 Z M20.6875,56.36218 C19.6155694,56.417823 18.654773,57.0411715 18.1671067,57.9973686 C17.6794404,58.9535657 17.7390102,60.0973072 18.3233723,60.9976695 C18.9077344,61.8980318 19.9280888,62.4181954 21,62.36218 L69,62.36218 C70.0819077,62.3774809 71.0882441,61.8090541 71.6336632,60.8745615 C72.1790822,59.9400688 72.1790822,58.7842912 71.6336632,57.8497985 C71.0882441,56.9153059 70.0819077,56.3468791 69,56.36218 L21,56.36218 C20.8959041,56.3567515 20.7915959,56.3567515 20.6875,56.36218 L20.6875,56.36218 Z" id="Shape"></path>
            </g>
        </g>
    </g>
</svg>