<svg xmlns="http://www.w3.org/2000/svg" xmlns:xlink="http://www.w3.org/1999/xlink" width="54" height="54" viewBox="0 0 54 54">
  <defs>
    <clipPath id="clip-path">
      <path id="Path_18" data-name="Path 18" d="M27,10A27,27,0,0,0,54-17,27,27,0,0,0,27-44,27,27,0,0,0,0-17,27,27,0,0,0,27,10Z" transform="translate(0 44)" fill="none" clip-rule="evenodd"/>
    </clipPath>
    <clipPath id="clip-path-2">
      <path id="Path_17" data-name="Path 17" d="M-420,465.455H296.727V-104H-420Z" transform="translate(420 104)" fill="none"/>
    </clipPath>
    <clipPath id="clip-path-3">
      <path id="Path_21" data-name="Path 21" d="M12.5-25.587h3.9V-12H12.5Zm1.85-1.7h-.028A2.254,2.254,0,0,1,12-29.64,2.274,2.274,0,0,1,14.381-32a2.263,2.263,0,0,1,2.351,2.356,2.269,2.269,0,0,1-2.378,2.358ZM32-12H27.58v-7.032c0-1.84-.691-3.1-2.212-3.1a2.265,2.265,0,0,0-2.111,1.665,3.383,3.383,0,0,0-.1,1.11V-12H18.783s.056-12.455,0-13.587h4.379v2.132a3.96,3.96,0,0,1,3.891-2.263c2.77,0,4.947,1.955,4.947,6.162V-12Z" transform="translate(-12 32)" fill="none" clip-rule="evenodd"/>
    </clipPath>
    <clipPath id="clip-path-4">
      <path id="Path_20" data-name="Path 20" d="M-420,360H164V-104H-420Z" transform="translate(420 104)" fill="none"/>
    </clipPath>
  </defs>
  <g id="Group_30" data-name="Group 30" transform="translate(0 44)">
    <g id="Group_27" data-name="Group 27" transform="translate(0 -44)" clip-path="url(#clip-path)">
      <g id="Group_26" data-name="Group 26" transform="translate(-515.455 -73.636)" clip-path="url(#clip-path-2)">
        <g id="Group_25" data-name="Group 25" transform="translate(515.455 73.636)">
          <path id="Path_16" data-name="Path 16" d="M27,54A27,27,0,1,0,0,27,27,27,0,0,0,27,54Z" fill="none" stroke="#878787" stroke-width="4"/>
        </g>
      </g>
    </g>
    <g id="Group_29" data-name="Group 29" transform="translate(17 -27)" clip-path="url(#clip-path-3)">
      <g id="Group_28" data-name="Group 28" transform="translate(-432 -72)" clip-path="url(#clip-path-4)">
        <path id="Path_19" data-name="Path 19" d="M7-7H37V-37H7Z" transform="translate(420 104)" fill="#878787"/>
      </g>
    </g>
  </g>
</svg>
